<svg width="45" height="45" fill="none" xmlns="http://www.w3.org/2000/svg">
<path d="M45 22.5C45 34.926 34.926 45 22.5 45S0 34.926 0 22.5 10.074 0 22.5 0 45 10.074 45 22.5Z" fill="#fff"/>
<path fill-rule="evenodd" clip-rule="evenodd" d="M22.5 43C33.822 43 43 33.822 43 22.5S33.822 2 22.5 2 2 11.178 2 22.5 11.178 43 22.5 43Zm0 2C34.926 45 45 34.926 45 22.5S34.926 0 22.5 0 0 10.074 0 22.5 10.074 45 22.5 45Z" fill="#F13C6E"/>
<path d="M27 13.004 24.405 13c-2.914 0-4.797 1.932-4.797 4.922v2.27h-2.608a.408.408 0 0 0-.407.407v3.288c0 .226.182.408.407.408h2.608v8.297c0 .226.183.408.408.408h3.402a.408.408 0 0 0 .408-.408v-8.297h3.049a.408.408 0 0 0 .408-.408l.001-3.288a.408.408 0 0 0-.408-.408h-3.05v-1.923c0-.925.22-1.394 1.425-1.394l1.747-.001a.408.408 0 0 0 .408-.408v-3.053a.408.408 0 0 0-.408-.408Z" fill="#F13C6E"/>
</svg>