<svg width="45" height="45" fill="none" xmlns="http://www.w3.org/2000/svg">
<path d="M45 22.5C45 34.926 34.926 45 22.5 45S0 34.926 0 22.5 10.074 0 22.5 0 45 10.074 45 22.5Z" fill="#fff"/>
<path fill-rule="evenodd" clip-rule="evenodd" d="M22.5 43C33.822 43 43 33.822 43 22.5S33.822 2 22.5 2 2 11.178 2 22.5 11.178 43 22.5 43Zm0 2C34.926 45 45 34.926 45 22.5S34.926 0 22.5 0 0 10.074 0 22.5 10.074 45 22.5 45Z" fill="#F13C6E"/>
<path d="M26.125 12h-8.25A6.876 6.876 0 0 0 11 18.875v8.25A6.876 6.876 0 0 0 17.875 34h8.25A6.876 6.876 0 0 0 33 27.125v-8.25A6.876 6.876 0 0 0 26.125 12Zm4.813 15.125a4.818 4.818 0 0 1-4.813 4.813h-8.25a4.818 4.818 0 0 1-4.813-4.813v-8.25a4.818 4.818 0 0 1 4.813-4.813h8.25a4.818 4.818 0 0 1 4.813 4.813v8.25Z" fill="#F13C6E"/>
<path d="M22 17.5a5.5 5.5 0 1 0 0 11 5.5 5.5 0 0 0 0-11Zm0 8.938A3.442 3.442 0 0 1 18.562 23 3.441 3.441 0 0 1 22 19.562 3.441 3.441 0 0 1 25.438 23 3.442 3.442 0 0 1 22 26.438ZM27.913 17.82a.733.733 0 1 0 0-1.465.733.733 0 0 0 0 1.465Z" fill="#F13C6E"/>
</svg>