<svg width="254" height="79" fill="none" xmlns="http://www.w3.org/2000/svg"><g clip-path="url(#a)"><path d="m57.22 25.003-10.533 10.38 4.079 4.018 10.533-10.38-4.079-4.018ZM35.91 46.025l-10.534 10.38 4.078 4.018 10.534-10.38-4.079-4.018ZM50.517 18.433l-10.533 10.38 4.078 4.018 10.534-10.38-4.079-4.018ZM29.235 39.426l-10.533 10.38 4.079 4.019 10.533-10.38-4.079-4.019ZM22.758 25.003l-4.079 4.018 10.533 10.38 4.079-4.02-10.533-10.378ZM29.454 18.426l-4.078 4.019 10.533 10.38 4.078-4.02-10.533-10.379ZM50.76 39.397l-4.08 4.019 10.534 10.38 4.078-4.02L50.76 39.398ZM44.092 46.003l-4.078 4.018 10.533 10.38 4.078-4.019-10.533-10.38Z" fill="#F13C6E"/><path d="m54.606 64.44-4.067-4.008L40 70.819 29.46 60.432l-4.066 4.007L40 78.832 54.606 64.44ZM18.672 29.03l-4.066-4.007L0 39.416l14.606 14.393 4.066-4.007-10.54-10.386 10.54-10.385ZM65.394 25.023l-4.066 4.008 10.54 10.385-10.54 10.386 4.066 4.007L80 39.416 65.394 25.023ZM50.54 18.4l4.066-4.007L40 0 25.394 14.393l4.067 4.007L40 8.014 50.54 18.4Z" fill="#EFEFEF"/></g><path d="M102.285 53.212v-25.22h8.965c3.105 0 5.461.588 7.066 1.766 1.606 1.167 2.409 2.881 2.409 5.145 0 1.236-.323 2.327-.967 3.274-.645.935-1.541 1.622-2.69 2.06 1.313.324 2.344.977 3.094 1.958.762.982 1.143 2.183 1.143 3.603 0 2.425-.785 4.261-2.356 5.508-1.57 1.248-3.808 1.883-6.715 1.906h-9.949Zm5.274-10.982v6.807h4.517c1.242 0 2.209-.288 2.901-.866.703-.589 1.054-1.397 1.054-2.425 0-2.31-1.213-3.482-3.638-3.516h-4.834Zm0-3.672h3.902c2.66-.047 3.99-1.092 3.99-3.136 0-1.143-.34-1.963-1.019-2.46-.668-.507-1.729-.761-3.182-.761h-3.691v6.357ZM144.276 42.282h-10.125v6.755h11.883v4.175h-17.157v-25.22h17.121V32.2h-11.847v6.01h10.125v4.07ZM167.177 48.015h-9.247l-1.757 5.197h-5.608l9.528-25.22h4.886l9.58 25.22h-5.607l-1.775-5.197Zm-7.823-4.209h6.399l-3.217-9.44-3.182 9.44ZM199.605 27.992v16.61c0 2.76-.879 4.943-2.637 6.548-1.746 1.606-4.137 2.408-7.172 2.408-2.988 0-5.361-.78-7.119-2.338-1.758-1.56-2.654-3.701-2.689-6.427V27.992h5.273v16.646c0 1.65.398 2.858 1.195 3.62.809.75 1.922 1.126 3.34 1.126 2.965 0 4.471-1.536 4.518-4.608V27.992h5.291ZM226.795 32.2h-7.84v21.012h-5.274V32.2h-7.734v-4.21h20.848v4.21ZM242.523 39.355l5.327-11.363h5.765l-8.402 16.074v9.146h-5.361v-9.146l-8.403-16.074h5.783l5.291 11.363Z" fill="#F13C6E"/><defs><clipPath id="a"><path fill="#fff" d="M0 0h80v78.832H0z"/></clipPath></defs></svg>