<svg width="46" height="45" fill="none" xmlns="http://www.w3.org/2000/svg">
<mask id="a" fill="#fff"><path d="M45.5 22.5C45.5 34.926 35.426 45 23 45S.5 34.926.5 22.5 10.574 0 23 0s22.5 10.074 22.5 22.5Z"/></mask>
<path d="M45.5 22.5C45.5 34.926 35.426 45 23 45S.5 34.926.5 22.5 10.574 0 23 0s22.5 10.074 22.5 22.5Z" fill="#fff"/>
<path d="M43.5 22.5C43.5 33.822 34.322 43 23 43v4c13.531 0 24.5-10.969 24.5-24.5h-4ZM23 43C11.678 43 2.5 33.822 2.5 22.5h-4C-1.5 36.031 9.469 47 23 47v-4ZM2.5 22.5C2.5 11.178 11.678 2 23 2v-4C9.469-2-1.5 8.969-1.5 22.5h4ZM23 2c11.322 0 20.5 9.178 20.5 20.5h4C47.5 8.969 36.531-2 23-2v4Z" fill="#F13C6E" mask="url(#a)"/>
<path d="M29.075 15H16.107c-2.544 0-4.607 2.102-4.607 4.696v6.608c0 2.594 2.063 4.696 4.607 4.696h12.968c2.544 0 4.607-2.102 4.607-4.696v-6.608c0-2.594-2.063-4.696-4.607-4.696Zm-3.116 8.322-6.065 2.948a.244.244 0 0 1-.349-.224v-6.082c0-.185.192-.305.354-.221l6.066 3.133a.25.25 0 0 1-.006.445Z" fill="#F13C6E"/>
</svg>